<?xml version="1.0" standalone="no"?>
<!DOCTYPE svg PUBLIC "-//W3C//DTD SVG 20010904//EN"
 "http://www.w3.org/TR/2001/REC-SVG-20010904/DTD/svg10.dtd">
<svg version="1.0" xmlns="http://www.w3.org/2000/svg"
 width="518.000000pt" height="518.000000pt" viewBox="0 0 518.000000 518.000000"
 preserveAspectRatio="xMidYMid meet">
<metadata>
Created by potrace 1.11, written by Peter Selinger 2001-2013
</metadata>
<g transform="translate(0.000000,518.000000) scale(0.100000,-0.100000)"
fill="#000000" stroke="none">
<path d="M2419 5156 c-2 -2 -44 -7 -94 -11 -49 -4 -92 -8 -95 -10 -3 -1 -25
-6 -50 -9 -25 -4 -52 -8 -60 -9 -81 -17 -146 -32 -205 -49 -38 -11 -83 -23
-100 -28 -138 -37 -389 -151 -550 -248 -372 -226 -693 -555 -912 -937 -32 -56
-115 -230 -146 -305 -35 -85 -103 -293 -112 -340 -3 -14 -7 -35 -10 -47 -3
-13 -7 -33 -10 -45 -36 -161 -49 -299 -49 -523 -1 -296 22 -459 107 -760 71
-249 259 -613 424 -816 89 -110 205 -237 273 -299 111 -102 122 -111 160 -140
18 -14 45 -34 59 -46 33 -26 201 -139 221 -148 8 -3 29 -15 45 -26 29 -18 187
-98 269 -135 146 -66 518 -172 606 -173 8 0 29 -2 45 -6 138 -28 543 -28 718
0 29 4 74 12 122 20 26 4 47 9 135 29 84 19 312 96 390 132 255 115 439 228
630 386 172 142 370 360 476 522 21 33 42 62 45 65 18 16 189 332 194 360 1 3
9 23 19 45 24 53 115 329 122 369 2 17 9 47 14 66 11 41 18 78 26 140 3 25 8
53 10 64 26 138 26 513 -1 706 -61 439 -253 886 -534 1240 -104 131 -271 297
-406 405 -27 22 -52 42 -55 45 -10 10 -146 102 -215 146 -92 58 -302 160 -419
204 -182 68 -417 128 -571 146 -33 3 -69 9 -80 11 -25 5 -431 14 -436 9z"/>
</g>
</svg>
